<svg width="25" height="25" viewBox="0 0 25 25" fill="none" xmlns="http://www.w3.org/2000/svg">
    <path
        d="M21.126 16.5902V8.59023C21.1256 8.23951 21.033 7.89504 20.8575 7.5914C20.682 7.28775 20.4297 7.0356 20.126 6.86023L13.126 2.86023C12.8219 2.6847 12.477 2.59229 12.126 2.59229C11.7749 2.59229 11.43 2.6847 11.126 2.86023L4.12598 6.86023C3.82224 7.0356 3.56996 7.28775 3.39444 7.5914C3.21892 7.89504 3.12634 8.23951 3.12598 8.59023V16.5902C3.12634 16.941 3.21892 17.2854 3.39444 17.5891C3.56996 17.8927 3.82224 18.1449 4.12598 18.3202L11.126 22.3202C11.43 22.4958 11.7749 22.5882 12.126 22.5882C12.477 22.5882 12.8219 22.4958 13.126 22.3202L20.126 18.3202C20.4297 18.1449 20.682 17.8927 20.8575 17.5891C21.033 17.2854 21.1256 16.941 21.126 16.5902Z"
        stroke="#424242" stroke-width="2" stroke-linecap="round" stroke-linejoin="round" />
    <path d="M3.39551 7.55017L12.1255 12.6002L20.8555 7.55017" stroke="#424242" stroke-width="2"
        stroke-linecap="round" stroke-linejoin="round" />
    <path d="M12.126 22.6702V12.5902" stroke="#424242" stroke-width="2" stroke-linecap="round"
        stroke-linejoin="round" />
</svg>
