<svg width="59" height="53" viewBox="0 0 59 53" fill="none" xmlns="http://www.w3.org/2000/svg">
<g clip-path="url(#clip0_2036_2474)">
<path d="M25.6455 1.14821L2.67797 12.236C2.38996 12.3751 2.20703 12.6666 2.20703 12.9864V40.2695C2.20703 40.5893 2.39006 40.8808 2.67797 41.0198L25.6455 52.1077C26.1032 52.3287 26.6368 52.3287 27.0945 52.1077L50.0621 41.0198C50.3501 40.8808 50.533 40.5893 50.533 40.2695V12.9864C50.533 12.6666 50.35 12.3751 50.0621 12.236L27.0945 1.14821C26.6368 0.927321 26.1032 0.927321 25.6455 1.14821Z" fill="#FFE17D"/>
<path d="M2.34558 12.5303C2.25802 12.6636 2.20703 12.8206 2.20703 12.9864V40.2695C2.20703 40.5893 2.39006 40.8808 2.67797 41.0198L25.6455 52.1076C25.8743 52.2181 26.1222 52.2733 26.37 52.2733V24.1283L2.34558 12.5303Z" fill="#FFC350"/>
<path d="M50.3926 12.5303C50.4802 12.6636 50.5312 12.8206 50.5312 12.9864V40.2695C50.5312 40.5893 50.3481 40.8808 50.0602 41.0198L27.0926 52.1076C26.8638 52.2181 26.616 52.2734 26.3682 52.2734V24.1283L50.3926 12.5303Z" fill="#FFD164"/>
<path d="M9.08162 38.8153C8.9604 38.8153 8.83669 38.7885 8.72038 38.7324L5.1744 37.0205C4.75947 36.8203 4.58616 36.3223 4.78631 35.9082C4.98567 35.4941 5.48525 35.3215 5.89858 35.5201L9.44456 37.2321C9.8595 37.4323 10.0328 37.9303 9.83265 38.3444C9.6895 38.642 9.39167 38.8153 9.08162 38.8153Z" fill="#FFE17D"/>
<path d="M12.3443 36.6908C12.223 36.6908 12.0993 36.6639 11.983 36.6078L5.17817 33.323C4.76404 33.1228 4.58993 32.6249 4.79008 32.2107C4.98944 31.7974 5.48982 31.6241 5.90235 31.8226L12.7071 35.1075C13.1212 35.3076 13.2953 35.8056 13.0952 36.2197C12.9521 36.5173 12.6543 36.6908 12.3443 36.6908Z" fill="#FFF6D8"/>
<path d="M42.2532 16.4473L18.1443 4.80035L11.7891 7.88081L35.9521 19.5458L42.2532 16.4473Z" fill="white"/>
<path d="M35.9512 19.5458V28.5825C35.9512 28.8896 36.2722 29.0912 36.5489 28.9577L41.7814 26.4317C42.0694 26.2926 42.2523 26.0011 42.2523 25.6813V16.4474L35.9512 19.5458Z" fill="white"/>
</g>
<circle cx="48.681" cy="41.9727" r="9.59505" fill="url(#paint0_linear_2036_2474)"/>
<g clip-path="url(#clip1_2036_2474)">
<path d="M44.0492 43.7747L42.6384 45.1856C42.6147 45.2082 42.6235 45.2491 42.6566 45.2589L44.3558 45.7751C44.5969 45.8484 44.7847 46.0362 44.858 46.2773L45.3742 47.9764C45.3839 48.0095 45.4249 48.0184 45.4475 47.9947L47.3352 46.1069C45.9385 45.76 44.7854 44.8892 44.0492 43.7747Z" fill="white"/>
<path d="M54.7232 45.1856L53.3124 43.7747C52.5814 44.8813 51.4319 45.7578 50.0264 46.1069L51.9141 47.9947C51.9367 48.0184 51.9776 48.0095 51.9874 47.9765L52.5036 46.2773C52.5769 46.0362 52.7648 45.8484 53.0058 45.7751L54.705 45.2589C54.7382 45.2491 54.7469 45.2081 54.7232 45.1856Z" fill="white"/>
<path d="M53.5139 40.7283C53.5139 38.064 51.3464 35.8962 48.6818 35.8962C46.0172 35.8962 43.8496 38.064 43.8496 40.7283C43.8496 43.1374 45.6233 45.1452 47.9392 45.5037C50.8728 45.9601 53.5139 43.6767 53.5139 40.7283ZM44.9151 41.9059C44.1182 39.3581 46.0365 36.7826 48.6818 36.7826C51.6368 36.7826 53.5899 39.9584 52.1495 42.6106C50.4866 45.6611 45.9617 45.235 44.9151 41.9059Z" fill="white"/>
<path d="M48.6817 37.4922C46.8973 37.4922 45.4453 38.944 45.4453 40.7283C45.4453 43.3535 48.4217 44.8844 50.5531 43.3671C51.0097 43.043 51.3816 42.5998 51.6209 42.0821C52.6152 39.9415 51.0301 37.4922 48.6817 37.4922ZM50.3151 40.2744C50.2747 40.3044 48.3085 41.7636 48.2973 41.772C48.1552 41.8779 47.9532 41.8637 47.827 41.7299C46.9238 40.7674 46.9961 40.8443 46.9744 40.8215C46.8227 40.6599 46.8543 40.3986 47.0442 40.2784C47.0444 40.2782 47.0447 40.2779 47.0449 40.2779C47.1859 40.1895 47.374 40.21 47.492 40.3359C47.683 40.5394 47.5544 40.4024 48.1281 41.0136C48.1899 40.9675 48.9176 40.4277 49.9186 39.6849C50.0759 39.568 50.2983 39.6009 50.4149 39.7582C50.5218 39.9017 50.5214 40.1215 50.3151 40.2744Z" fill="white"/>
</g>
<defs>
<linearGradient id="paint0_linear_2036_2474" x1="48.681" y1="32.3776" x2="48.681" y2="51.5677" gradientUnits="userSpaceOnUse">
<stop stop-color="#550229"/>
<stop offset="1" stop-color="#550229"/>
</linearGradient>
<clipPath id="clip0_2036_2474">
<rect width="51.2908" height="51.2908" fill="white" transform="translate(0.724609 0.982544)"/>
</clipPath>
<clipPath id="clip1_2036_2474">
<rect width="12.112" height="12.112" fill="white" transform="translate(42.625 35.896)"/>
</clipPath>
</defs>
</svg>
